<?xml version="1.0" encoding="UTF-8"?>
<svg xmlns="http://www.w3.org/2000/svg" xmlns:xlink="http://www.w3.org/1999/xlink" width="30px" height="30px" viewBox="0 0 30 30" version="1.1">
<g id="surface1">
<path style=" stroke:none;fill-rule:nonzero;fill:rgb(0%,0%,0%);fill-opacity:1;" d="M 23.75 18.75 L 23.75 5 C 23.75 4.621094 23.574219 4.261719 23.273438 4.023438 C 22.980469 3.785156 22.59375 3.695312 22.226562 3.773438 L 10.976562 6.273438 C 10.402344 6.402344 9.996094 6.914062 10 7.5 L 10 17.925781 C 8.246094 17.097656 6.160156 17.527344 4.871094 18.976562 C 3.585938 20.425781 3.414062 22.550781 4.445312 24.191406 C 5.476562 25.832031 7.46875 26.597656 9.332031 26.066406 C 11.195312 25.535156 12.488281 23.839844 12.5 21.898438 C 12.511719 21.683594 12.511719 21.464844 12.5 21.25 L 12.5 8.5 L 21.25 6.5625 L 21.25 15.425781 C 19.496094 14.597656 17.40625 15.027344 16.121094 16.480469 C 14.835938 17.929688 14.664062 20.058594 15.699219 21.699219 C 16.734375 23.339844 18.726562 24.097656 20.589844 23.5625 C 22.453125 23.027344 23.742188 21.328125 23.75 19.386719 C 23.761719 19.175781 23.761719 18.960938 23.75 18.75 Z M 23.75 18.75 "/>
</g>
</svg>
