<?xml version="1.0" encoding="UTF-8"?>
<svg xmlns="http://www.w3.org/2000/svg" xmlns:xlink="http://www.w3.org/1999/xlink" width="30px" height="30px" viewBox="0 0 30 30" version="1.1">
<g id="surface1">
<path style=" stroke:none;fill-rule:nonzero;fill:rgb(0%,0%,0%);fill-opacity:1;" d="M 24.398438 8.378906 C 24.078125 6.472656 23.132812 4.730469 21.691406 3.410156 C 20.085938 1.941406 18 1.136719 15.828125 1.136719 C 14.152344 1.136719 12.515625 1.617188 11.117188 2.523438 C 9.949219 3.277344 8.980469 4.292969 8.296875 5.492188 C 8 5.433594 7.691406 5.402344 7.382812 5.402344 C 4.761719 5.402344 2.628906 7.539062 2.628906 10.160156 C 2.628906 10.5 2.664062 10.828125 2.726562 11.148438 C 1.03125 12.382812 0 14.367188 0 16.484375 C 0 18.191406 0.636719 19.851562 1.796875 21.164062 C 2.984375 22.511719 4.558594 23.304688 6.238281 23.398438 C 6.253906 23.398438 6.269531 23.398438 6.285156 23.398438 L 11.589844 23.398438 C 12.054688 23.398438 12.425781 23.027344 12.425781 22.566406 C 12.425781 22.105469 12.054688 21.734375 11.589844 21.734375 L 6.3125 21.734375 C 3.789062 21.578125 1.664062 19.179688 1.664062 16.476562 C 1.664062 14.730469 2.601562 13.101562 4.113281 12.222656 C 4.464844 12.015625 4.613281 11.589844 4.480469 11.210938 C 4.355469 10.875 4.292969 10.523438 4.292969 10.148438 C 4.292969 8.445312 5.683594 7.058594 7.382812 7.058594 C 7.75 7.058594 8.105469 7.117188 8.4375 7.242188 C 8.847656 7.390625 9.296875 7.207031 9.480469 6.816406 C 10.636719 4.367188 13.128906 2.789062 15.835938 2.789062 C 19.476562 2.789062 22.480469 5.515625 22.824219 9.128906 C 22.863281 9.507812 23.144531 9.808594 23.515625 9.871094 C 26.261719 10.339844 28.335938 12.875 28.335938 15.769531 C 28.335938 18.835938 25.921875 21.5 22.949219 21.726562 L 18.402344 21.726562 C 17.941406 21.726562 17.570312 22.097656 17.570312 22.558594 C 17.570312 23.023438 17.941406 23.394531 18.402344 23.394531 L 22.980469 23.394531 C 23 23.394531 23.015625 23.394531 23.042969 23.394531 C 24.921875 23.257812 26.679688 22.394531 27.988281 20.949219 C 29.289062 19.519531 30 17.679688 30 15.769531 C 29.992188 12.308594 27.632812 9.230469 24.398438 8.378906 Z M 24.398438 8.378906 "/>
<path style=" stroke:none;fill-rule:nonzero;fill:rgb(0%,0%,0%);fill-opacity:1;" d="M 20 17.273438 C 20.328125 16.945312 20.328125 16.421875 20 16.09375 L 15.589844 11.683594 C 15.433594 11.53125 15.21875 11.4375 15.003906 11.4375 C 14.789062 11.4375 14.570312 11.523438 14.417969 11.683594 L 10.007812 16.09375 C 9.679688 16.421875 9.679688 16.945312 10.007812 17.273438 C 10.167969 17.433594 10.382812 17.519531 10.59375 17.519531 C 10.800781 17.519531 11.019531 17.441406 11.179688 17.273438 L 14.171875 14.28125 L 14.171875 28.03125 C 14.171875 28.496094 14.539062 28.863281 15.003906 28.863281 C 15.464844 28.863281 15.835938 28.496094 15.835938 28.03125 L 15.835938 14.28125 L 18.828125 17.273438 C 19.148438 17.601562 19.671875 17.601562 20 17.273438 Z M 20 17.273438 "/>
</g>
</svg>
